<svg width="70" height="70" viewBox="0 0 70 70" fill="none" xmlns="http://www.w3.org/2000/svg">
<g id="shipping-circle" clip-path="url(#clip0_1_21)">
<path id="Vector" d="M35 0C28.0777 0 21.3108 2.05271 15.5551 5.89856C9.79934 9.74441 5.3133 15.2107 2.66423 21.6061C0.0151648 28.0015 -0.677952 35.0388 0.672531 41.8282C2.02301 48.6175 5.35644 54.8539 10.2513 59.7487C15.1461 64.6436 21.3825 67.977 28.1719 69.3275C34.9612 70.678 41.9985 69.9849 48.3939 67.3358C54.7893 64.6867 60.2556 60.2007 64.1015 54.445C67.9473 48.6892 70 41.9223 70 35C69.9891 25.7208 66.2981 16.8247 59.7367 10.2633C53.1753 3.70189 44.2792 0.0108975 35 0ZM35 68.6275C28.3491 68.6275 21.8476 66.6552 16.3176 62.9602C10.7876 59.2652 6.47748 54.0133 3.9323 47.8687C1.38712 41.7241 0.721184 34.9627 2.01871 28.4396C3.31623 21.9165 6.51893 15.9247 11.2218 11.2218C15.9247 6.51892 21.9165 3.31621 28.4396 2.01869C34.9627 0.721168 41.7241 1.3871 47.8687 3.93229C54.0133 6.47747 59.2652 10.7876 62.9602 16.3176C66.6553 21.8476 68.6275 28.3491 68.6275 35C68.6166 43.9152 65.0702 52.4622 58.7662 58.7662C52.4622 65.0702 43.9152 68.6166 35 68.6275ZM53.6804 39.5706L51.4843 40.3667L45.2941 23.1686C45.23 22.9955 45.1024 22.8532 44.9373 22.7706C44.7702 22.702 44.5828 22.702 44.4157 22.7706L27.0667 29.0843L25.5432 24.9667C25.5432 24.802 24.5686 21.0686 21.4255 20.9725C19.9706 20.9725 14.6588 21.0549 14.4392 21.0549C14.2584 21.062 14.0873 21.1389 13.9619 21.2694C13.8365 21.3999 13.7665 21.5739 13.7667 21.7549C13.7861 21.9336 13.8686 22.0996 13.9995 22.2229C14.1303 22.3461 14.3008 22.4187 14.4804 22.4275C14.4804 22.4275 19.9706 22.2902 21.3432 22.3451C23.4432 22.4137 24.1706 25.2549 24.1981 25.3647L31.2255 44.6902C30.1395 45.0492 29.1928 45.7385 28.5175 46.6617C27.8422 47.5849 27.4722 48.6959 27.459 49.8396C27.4458 50.9834 27.7902 52.1026 28.444 53.0412C29.0978 53.9797 30.0284 54.6906 31.1058 55.0745C32.1832 55.4585 33.3537 55.4964 34.4537 55.1828C35.5537 54.8693 36.5283 54.2201 37.2414 53.3258C37.9545 52.4315 38.3705 51.3368 38.4313 50.1947C38.4921 49.0525 38.1946 47.9198 37.5804 46.9549L54.1745 40.9157C54.2617 40.8869 54.3421 40.841 54.4112 40.7806C54.4803 40.7202 54.5365 40.6465 54.5767 40.564C54.6168 40.4815 54.6399 40.3918 54.6448 40.3001C54.6496 40.2085 54.636 40.1168 54.6048 40.0306C54.5736 39.9443 54.5254 39.8651 54.4631 39.7978C54.4007 39.7305 54.3255 39.6763 54.2419 39.6385C54.1583 39.6008 54.0679 39.5802 53.9762 39.5779C53.8845 39.5757 53.7932 39.5919 53.7079 39.6255L53.6804 39.5706ZM27.451 30.3608L35.549 27.451L37.7451 33.4765C37.7913 33.6102 37.8785 33.726 37.9944 33.8074C38.1102 33.8887 38.2487 33.9314 38.3902 33.9294C38.4674 33.9425 38.5463 33.9425 38.6235 33.9294C38.7946 33.8675 38.934 33.7401 39.0113 33.5754C39.0885 33.4107 39.0971 33.2221 39.0353 33.051L36.8392 27.0255L44.1824 24.3627L50.2079 40.9157L36.6196 45.8706C35.6294 44.9154 34.3166 44.3667 32.9412 44.3333H32.5981L27.451 30.3608ZM32.9412 53.9412C32.1268 53.9412 31.3307 53.6997 30.6536 53.2472C29.9764 52.7948 29.4486 52.1517 29.137 51.3993C28.8253 50.6469 28.7438 49.819 28.9027 49.0202C29.0615 48.2215 29.4537 47.4878 30.0296 46.9119C30.6054 46.3361 31.3391 45.9439 32.1379 45.785C32.9366 45.6261 33.7645 45.7077 34.5169 46.0193C35.2694 46.331 35.9124 46.8587 36.3649 47.5359C36.8173 48.213 37.0588 49.0091 37.0588 49.8235C37.0588 50.9156 36.625 51.9629 35.8528 52.7351C35.0806 53.5074 34.0333 53.9412 32.9412 53.9412Z" fill="black"/>
</g>
<defs>
<clipPath id="clip0_1_21">
<rect width="70" height="70" fill="white"/>
</clipPath>
</defs>
</svg>
