<svg width="70" height="70" viewBox="0 0 70 70" fill="none" xmlns="http://www.w3.org/2000/svg">
<g id="whatsapp-circle" clip-path="url(#clip0_1_33)">
<path id="Vector" d="M20.5883 51.0588C20.4982 51.0599 20.409 51.0422 20.3263 51.0067C20.2435 50.9713 20.1691 50.9189 20.1079 50.853C20.0208 50.7699 19.9581 50.6646 19.9267 50.5485C19.8952 50.4323 19.8962 50.3098 19.9294 50.1941L22.1667 41.9588C20.7484 39.3685 20.0279 36.4539 20.076 33.5011C20.124 30.5483 20.939 27.6588 22.4409 25.116C23.9427 22.5732 26.0799 20.4646 28.6426 18.997C31.2054 17.5295 34.1057 16.7535 37.0588 16.7451C41.5767 16.7734 45.9036 18.5713 49.111 21.7531C52.3185 24.935 54.1511 29.2472 54.2157 33.7647C54.1963 36.7 53.4236 39.5812 51.9715 42.1322C50.5194 44.6832 48.4366 46.8187 45.9226 48.334C43.4086 49.8493 40.5476 50.6937 37.6137 50.7862C34.6798 50.8788 31.7712 50.2165 29.1667 48.8628L20.7667 51.0588C20.7081 51.0734 20.6468 51.0734 20.5883 51.0588ZM37.0588 18.1177C34.3134 18.1173 31.6161 18.8393 29.238 20.2112C26.8599 21.5831 24.8846 23.5566 23.5105 25.9334C22.1364 28.3103 21.4118 31.0068 21.4097 33.7523C21.4075 36.4978 22.1277 39.1955 23.4981 41.5745C23.5463 41.6514 23.5774 41.7378 23.5893 41.8278C23.6011 41.9178 23.5934 42.0093 23.5667 42.0961L21.5902 49.4118L29.0981 47.4353C29.1785 47.4017 29.2648 47.3844 29.352 47.3844C29.4392 47.3844 29.5255 47.4017 29.6059 47.4353C32.9013 49.2296 36.7325 49.7775 40.3988 48.979C44.0651 48.1805 47.3214 46.0889 49.5722 43.0868C51.823 40.0846 52.9179 36.3725 52.6566 32.6293C52.3952 28.8862 50.7952 25.3623 48.149 22.702C46.6986 21.2383 44.9705 20.0788 43.0662 19.2916C41.1618 18.5044 39.1195 18.1053 37.0588 18.1177ZM42.0961 43.6608C40.3752 43.5557 38.696 43.088 37.1686 42.2882C33.7814 40.6355 30.8996 38.1044 28.8235 34.9588L28.7412 34.8353C27.5203 33.2978 26.7931 31.427 26.6549 29.4686C26.6387 28.6591 26.7872 27.8547 27.0916 27.1043C27.396 26.354 27.8498 25.6734 28.4255 25.1039L28.5216 24.9941C28.7481 24.7446 29.0232 24.544 29.33 24.4048C29.6369 24.2655 29.969 24.1905 30.3059 24.1843H31.2667C31.8706 24.1843 32.4745 24.3353 32.9275 25.4334L33.4079 26.5863C33.8196 27.602 34.3137 28.7824 34.3961 28.9608C34.5116 29.1834 34.5719 29.4306 34.5719 29.6814C34.5719 29.9322 34.5116 30.1793 34.3961 30.402C34.0808 31.0492 33.6585 31.6385 33.1471 32.1451C33.0556 32.224 32.9768 32.3166 32.9137 32.4196C34.3588 34.8654 36.5746 36.7625 39.2137 37.8137C39.2761 37.8549 39.3461 37.8829 39.4196 37.8961C39.8726 37.3334 40.6412 36.4275 40.8883 36.0432C40.9779 35.884 41.0984 35.7444 41.2427 35.6325C41.387 35.5205 41.5522 35.4385 41.7286 35.3912C41.905 35.3439 42.0891 35.3323 42.27 35.357C42.451 35.3818 42.6251 35.4424 42.7824 35.5353C43.2902 35.7137 45.802 36.9079 46.1314 37.1275L46.3373 37.2235C46.7483 37.3596 47.1014 37.6304 47.3392 37.9922C47.5839 38.9339 47.5016 39.9308 47.1059 40.8196C46.7112 41.5244 46.1679 42.135 45.5138 42.609C44.8597 43.083 44.1103 43.4091 43.3177 43.5647C42.9229 43.6295 42.5236 43.6617 42.1235 43.6608H42.0961ZM30.3334 25.5569C30.1728 25.5457 30.012 25.575 29.8657 25.6421C29.7194 25.7093 29.5923 25.8121 29.4961 25.9412L29.4 26.0373C28.9456 26.4827 28.5889 27.0178 28.3526 27.6085C28.1163 28.1993 28.0056 28.8328 28.0275 29.4686C28.1561 31.1253 28.7829 32.7042 29.8255 33.9981L29.949 34.1765C31.8903 37.1277 34.5936 39.499 37.7726 41.0392C40.6549 42.2882 41.7667 42.4118 43.153 42.1922C43.7087 42.0851 44.2376 41.8685 44.7088 41.5551C45.1801 41.2417 45.5844 40.8377 45.8981 40.3667C46.1222 39.7947 46.225 39.1824 46.2 38.5686C46.2 38.6373 46.0079 38.5686 45.8432 38.4588L45.5412 38.4314C44.9373 38.1294 42.7137 37.0588 42.3432 36.9079C42.251 36.8681 42.1541 36.8405 42.0549 36.8255C41.581 37.5337 41.0582 38.2079 40.4902 38.8432C40.2731 39.1189 39.9587 39.3009 39.6115 39.352C39.2644 39.403 38.9108 39.3192 38.6235 39.1177C35.7238 37.9654 33.3032 35.8595 31.7608 33.1471C31.5707 32.8467 31.5045 32.4843 31.5762 32.1362C31.6478 31.788 31.8518 31.4812 32.1451 31.2804C32.5511 30.8801 32.8895 30.4166 33.1471 29.9079C33.1471 29.9079 33.1471 29.9079 33.1471 29.6745C33.1471 29.4412 32.6941 28.5902 32.1314 27.2177L31.651 26.0647C31.6052 25.9157 31.5253 25.7794 31.4177 25.6667H30.3334V25.5569ZM35 70C28.0777 70 21.3108 67.9473 15.5551 64.1015C9.79934 60.2556 5.3133 54.7893 2.66423 48.3939C0.0151648 41.9985 -0.677952 34.9612 0.672531 28.1719C2.02301 21.3825 5.35644 15.1461 10.2513 10.2513C15.1461 5.35644 21.3825 2.02301 28.1719 0.672531C34.9612 -0.677952 41.9985 0.0151648 48.3939 2.66423C54.7893 5.3133 60.2556 9.79934 64.1015 15.5551C67.9473 21.3108 70 28.0777 70 35C69.9891 44.2792 66.2981 53.1753 59.7367 59.7367C53.1753 66.2981 44.2792 69.9891 35 70ZM35 1.37256C28.3491 1.37256 21.8476 3.34478 16.3176 7.03981C10.7876 10.7348 6.47748 15.9867 3.9323 22.1313C1.38712 28.276 0.721184 35.0373 2.01871 41.5604C3.31623 48.0835 6.51893 54.0753 11.2218 58.7782C15.9247 63.4811 21.9165 66.6838 28.4396 67.9813C34.9627 69.2788 41.7241 68.6129 47.8687 66.0677C54.0133 63.5225 59.2652 59.2124 62.9602 53.6824C66.6553 48.1524 68.6275 41.6509 68.6275 35C68.6166 26.0848 65.0702 17.5379 58.7662 11.2339C52.4622 4.92984 43.9152 1.38346 35 1.37256Z" fill="black"/>
</g>
<defs>
<clipPath id="clip0_1_33">
<rect width="70" height="70" fill="white"/>
</clipPath>
</defs>
</svg>
