<svg width="70" height="70" viewBox="0 0 70 70" fill="none" xmlns="http://www.w3.org/2000/svg">
<g id="promotions-circle" clip-path="url(#clip0_1_27)">
<path id="Vector" d="M23.7451 47.2294L47.2294 23.7451C47.3587 23.6159 47.4313 23.4406 47.4313 23.2579C47.4313 23.0751 47.3587 22.8998 47.2294 22.7706C47.1002 22.6414 46.9249 22.5688 46.7422 22.5688C46.5594 22.5688 46.3841 22.6414 46.2549 22.7706L22.7706 46.2549C22.644 46.3855 22.5732 46.5603 22.5732 46.7422C22.5732 46.9241 22.644 47.0988 22.7706 47.2294C22.906 47.3522 23.082 47.4206 23.2647 47.4216C23.4433 47.4199 23.6147 47.3513 23.7451 47.2294ZM35 70C28.0777 70 21.3108 67.9473 15.5551 64.1015C9.79934 60.2556 5.3133 54.7893 2.66423 48.3939C0.0151648 41.9985 -0.677952 34.9612 0.672531 28.1719C2.02301 21.3825 5.35644 15.1461 10.2513 10.2513C15.1461 5.35644 21.3825 2.02301 28.1719 0.672531C34.9612 -0.677952 41.9985 0.0151648 48.3939 2.66423C54.7893 5.3133 60.2556 9.79934 64.1015 15.5551C67.9473 21.3108 70 28.0777 70 35C69.9891 44.2792 66.2981 53.1753 59.7367 59.7367C53.1753 66.2981 44.2792 69.9891 35 70ZM35 1.37256C28.3491 1.37256 21.8476 3.34478 16.3176 7.03981C10.7876 10.7348 6.47748 15.9867 3.9323 22.1313C1.38712 28.276 0.721184 35.0373 2.01871 41.5604C3.31623 48.0835 6.51893 54.0753 11.2218 58.7782C15.9247 63.4811 21.9165 66.6838 28.4396 67.9813C34.9627 69.2788 41.7241 68.6129 47.8687 66.0677C54.0133 63.5225 59.2652 59.2124 62.9602 53.6824C66.6553 48.1524 68.6275 41.6509 68.6275 35C68.6166 26.0848 65.0702 17.5379 58.7662 11.2339C52.4622 4.92984 43.9152 1.38346 35 1.37256ZM27.3 32.653C26.2413 32.653 25.2064 32.339 24.3261 31.7508C23.4458 31.1626 22.7597 30.3266 22.3545 29.3485C21.9494 28.3704 21.8434 27.2941 22.0499 26.2557C22.2565 25.2173 22.7663 24.2635 23.5149 23.5149C24.2635 22.7663 25.2173 22.2565 26.2557 22.0499C27.2941 21.8434 28.3704 21.9494 29.3485 22.3545C30.3266 22.7597 31.1626 23.4458 31.7508 24.3261C32.339 25.2064 32.653 26.2413 32.653 27.3C32.653 28.7197 32.089 30.0812 31.0851 31.0851C30.0812 32.089 28.7197 32.653 27.3 32.653ZM27.3 23.3333C26.5122 23.3334 25.7421 23.5672 25.0872 24.0051C24.4323 24.4431 23.9222 25.0656 23.6213 25.7937C23.3205 26.5218 23.2424 27.3228 23.3971 28.0953C23.5518 28.8678 23.9323 29.577 24.4903 30.1332C25.0484 30.6893 25.7589 31.0673 26.5319 31.2193C27.305 31.3713 28.1057 31.2906 28.8328 30.9872C29.5599 30.6838 30.1806 30.1715 30.6163 29.5151C31.052 28.8588 31.2831 28.0878 31.2804 27.3C31.2768 26.2467 30.8558 25.2378 30.1097 24.4943C29.3637 23.7508 28.3533 23.3333 27.3 23.3333ZM42.7 48.0392C41.6401 48.0419 40.6033 47.73 39.7209 47.1428C38.8385 46.5557 38.1503 45.7198 37.7435 44.7411C37.3366 43.7624 37.2295 42.685 37.4356 41.6454C37.6417 40.6057 38.1518 39.6507 38.9012 38.9012C39.6507 38.1518 40.6057 37.6417 41.6454 37.4356C42.685 37.2295 43.7624 37.3366 44.7411 37.7435C45.7198 38.1503 46.5557 38.8385 47.1428 39.7209C47.73 40.6033 48.0419 41.6401 48.0392 42.7C48.0356 44.115 47.4719 45.4709 46.4714 46.4714C45.4709 47.4719 44.115 48.0356 42.7 48.0392ZM42.7 38.7196C41.9122 38.7169 41.1413 38.948 40.4849 39.3838C39.8285 39.8195 39.3162 40.4402 39.0128 41.1673C38.7095 41.8943 38.6287 42.6951 38.7807 43.4681C38.9327 44.2411 39.3108 44.9516 39.8669 45.5097C40.423 46.0677 41.1322 46.4482 41.9047 46.6029C42.6772 46.7576 43.4782 46.6796 44.2063 46.3787C44.9345 46.0779 45.5569 45.5677 45.9949 44.9128C46.4329 44.258 46.6667 43.4879 46.6667 42.7C46.6667 41.6467 46.2492 40.6364 45.5057 39.8903C44.7622 39.1442 43.7533 38.7233 42.7 38.7196Z" fill="black"/>
</g>
<defs>
<clipPath id="clip0_1_27">
<rect width="70" height="70" fill="white"/>
</clipPath>
</defs>
</svg>
