<svg width="70" height="70" viewBox="0 0 70 70" fill="none" xmlns="http://www.w3.org/2000/svg">
<g id="security-circle" clip-path="url(#clip0_1_39)">
<path id="Vector" d="M35 53.5294C34.9228 53.5425 34.8439 53.5425 34.7667 53.5294C21.1784 48.6569 17.0608 31.8294 17.8843 23.8961C17.8991 23.773 17.9462 23.6561 18.021 23.5572C18.0958 23.4583 18.1954 23.3811 18.3098 23.3333L34.7804 16.5667C34.9475 16.498 35.1349 16.498 35.302 16.5667L51.7726 23.3333C51.887 23.3811 51.9866 23.4583 52.0614 23.5572C52.1361 23.6561 52.1833 23.773 52.1981 23.8961C53.0216 31.8294 48.9039 48.602 35.3157 53.5294C35.2118 53.5535 35.1039 53.5535 35 53.5294ZM19.2157 24.4039C18.6118 32.0628 22.5373 47.4765 35 52.1569C47.4628 47.4765 51.3883 32.0628 50.7843 24.4039L35 17.8432L19.2157 24.4039ZM32.5569 41.7255L46.0628 28.3294C46.192 28.2002 46.2646 28.0249 46.2646 27.8422C46.2646 27.6594 46.192 27.4841 46.0628 27.3549C45.9335 27.2257 45.7583 27.1531 45.5755 27.1531C45.3928 27.1531 45.2175 27.2257 45.0882 27.3549L32.0628 40.2706L25.9137 34.149C25.7817 34.0375 25.6124 33.9799 25.4396 33.9877C25.2669 33.9956 25.1036 34.0684 24.9822 34.1915C24.8608 34.3146 24.7904 34.479 24.785 34.6518C24.7795 34.8246 24.8395 34.9931 24.953 35.1235L31.5686 41.7255C31.6954 41.8548 31.868 41.9288 32.049 41.9314C32.1432 41.933 32.2367 41.9156 32.3239 41.8802C32.4112 41.8448 32.4904 41.7922 32.5569 41.7255ZM35 70C28.0777 70 21.3108 67.9473 15.5551 64.1015C9.79934 60.2556 5.3133 54.7893 2.66423 48.3939C0.0151648 41.9985 -0.677952 34.9612 0.672531 28.1719C2.02301 21.3825 5.35644 15.1461 10.2513 10.2513C15.1461 5.35644 21.3825 2.02301 28.1719 0.672531C34.9612 -0.677952 41.9985 0.0151648 48.3939 2.66423C54.7893 5.3133 60.2556 9.79934 64.1015 15.5551C67.9473 21.3108 70 28.0777 70 35C69.9891 44.2792 66.2981 53.1753 59.7367 59.7367C53.1753 66.2981 44.2792 69.9891 35 70ZM35 1.37256C28.3491 1.37256 21.8476 3.34478 16.3176 7.03981C10.7876 10.7348 6.47748 15.9867 3.9323 22.1313C1.38712 28.276 0.721184 35.0373 2.01871 41.5604C3.31623 48.0835 6.51893 54.0753 11.2218 58.7782C15.9247 63.4811 21.9165 66.6838 28.4396 67.9813C34.9627 69.2788 41.7241 68.6129 47.8687 66.0677C54.0133 63.5225 59.2652 59.2124 62.9602 53.6824C66.6553 48.1524 68.6275 41.6509 68.6275 35C68.6166 26.0848 65.0702 17.5379 58.7662 11.2339C52.4622 4.92984 43.9152 1.38346 35 1.37256Z" fill="black"/>
</g>
<defs>
<clipPath id="clip0_1_39">
<rect width="70" height="70" fill="white"/>
</clipPath>
</defs>
</svg>
